<mxfile host="app.diagrams.net" modified="2024-06-06T07:16:15.115Z" agent="Mozilla/5.0 (Windows NT 10.0; Win64; x64) AppleWebKit/537.36 (KHTML, like Gecko) Chrome/125.0.0.0 Safari/537.36" etag="VG6AzKzlD_J0AjTf0Ymj" version="24.4.14" type="github">
  <diagram name="Страница — 1" id="I78CoUXS9Kc0Csxwn2w1">
    <mxGraphModel dx="1415" dy="738" grid="1" gridSize="10" guides="1" tooltips="1" connect="1" arrows="1" fold="1" page="1" pageScale="1" pageWidth="827" pageHeight="1169" math="0" shadow="0">
      <root>
        <mxCell id="0" />
        <mxCell id="1" parent="0" />
        <mxCell id="sjrVnmPFWxO_eYxIRuEh-2" style="edgeStyle=orthogonalEdgeStyle;rounded=0;orthogonalLoop=1;jettySize=auto;html=1;exitX=1;exitY=0.25;exitDx=0;exitDy=0;" edge="1" parent="1" source="sjrVnmPFWxO_eYxIRuEh-1" target="sjrVnmPFWxO_eYxIRuEh-3">
          <mxGeometry relative="1" as="geometry">
            <mxPoint x="450" y="310" as="targetPoint" />
          </mxGeometry>
        </mxCell>
        <mxCell id="sjrVnmPFWxO_eYxIRuEh-1" value="First_object" style="rounded=0;whiteSpace=wrap;html=1;" vertex="1" parent="1">
          <mxGeometry x="160" y="170" width="170" height="110" as="geometry" />
        </mxCell>
        <mxCell id="sjrVnmPFWxO_eYxIRuEh-3" value="Second object" style="ellipse;whiteSpace=wrap;html=1;" vertex="1" parent="1">
          <mxGeometry x="390" y="350" width="120" height="80" as="geometry" />
        </mxCell>
      </root>
    </mxGraphModel>
  </diagram>
</mxfile>
